<svg width="347" height="151" viewBox="0 0 347 151" fill="none" xmlns="http://www.w3.org/2000/svg">
<path d="M11.712 109V51.976H0.864V42.952H32.352V51.976H21.504V109H11.712ZM49.0958 109.768C43.7198 109.768 39.8478 108.84 37.4798 106.984C35.1758 105.128 33.7037 102.024 33.0637 97.672C32.4877 93.32 32.1997 86.088 32.1997 75.976C32.1997 65.864 32.4877 58.632 33.0637 54.28C33.7037 49.928 35.1758 46.824 37.4798 44.968C39.8478 43.112 43.7198 42.184 49.0958 42.184C54.5358 42.184 58.4078 43.112 60.7118 44.968C63.0798 46.824 64.5518 49.928 65.1278 54.28C65.7678 58.632 66.0878 65.864 66.0878 75.976C66.0878 86.088 65.7678 93.32 65.1278 97.672C64.5518 102.024 63.0798 105.128 60.7118 106.984C58.4078 108.84 54.5358 109.768 49.0958 109.768ZM49.0958 100.84C51.4638 100.84 53.0958 100.424 53.9918 99.592C54.8878 98.76 55.4958 96.712 55.8158 93.448C56.1357 90.184 56.2957 84.36 56.2957 75.976C56.2957 67.592 56.1357 61.768 55.8158 58.504C55.4958 55.24 54.8878 53.192 53.9918 52.36C53.0958 51.528 51.4638 51.112 49.0958 51.112C46.7278 51.112 45.0958 51.528 44.1998 52.36C43.3678 53.192 42.7917 55.24 42.4718 58.504C42.1518 61.768 41.9918 67.592 41.9918 75.976C41.9918 84.36 42.1518 90.184 42.4718 93.448C42.7917 96.712 43.3678 98.76 44.1998 99.592C45.0958 100.424 46.7278 100.84 49.0958 100.84Z" fill="black"/>
<path d="M85.712 109V51.976H74.864V42.952H106.352V51.976H95.504V109H85.712ZM131.044 109V80.296H117.988V109H108.195V42.952H117.988V70.984H131.044V42.952H140.836V109H131.044ZM146.408 109V42.952H172.424V51.88H156.296V71.176H170.408V80.104H156.296V100.072H172.424V109H146.408Z" fill="black"/>
<path d="M223.104 109V56.68H222.528L213.504 109H203.52L194.496 56.68H193.92V109H184.608V42.952H199.68L208.416 93.832H209.088L217.824 42.952H232.608V109H223.104ZM253.94 109.768C248.564 109.768 244.692 108.84 242.324 106.984C240.02 105.128 238.548 102.024 237.908 97.672C237.332 93.32 237.044 86.088 237.044 75.976C237.044 65.864 237.332 58.632 237.908 54.28C238.548 49.928 240.02 46.824 242.324 44.968C244.692 43.112 248.564 42.184 253.94 42.184C259.38 42.184 263.252 43.112 265.556 44.968C267.924 46.824 269.396 49.928 269.972 54.28C270.612 58.632 270.932 65.864 270.932 75.976C270.932 86.088 270.612 93.32 269.972 97.672C269.396 102.024 267.924 105.128 265.556 106.984C263.252 108.84 259.38 109.768 253.94 109.768ZM253.94 100.84C256.308 100.84 257.94 100.424 258.836 99.592C259.732 98.76 260.34 96.712 260.66 93.448C260.98 90.184 261.14 84.36 261.14 75.976C261.14 67.592 260.98 61.768 260.66 58.504C260.34 55.24 259.732 53.192 258.836 52.36C257.94 51.528 256.308 51.112 253.94 51.112C251.572 51.112 249.94 51.528 249.044 52.36C248.212 53.192 247.636 55.24 247.316 58.504C246.996 61.768 246.836 67.592 246.836 75.976C246.836 84.36 246.996 90.184 247.316 93.448C247.636 96.712 248.212 98.76 249.044 99.592C249.94 100.424 251.572 100.84 253.94 100.84ZM307.537 42.952V80.104C307.537 88.744 307.217 94.984 306.577 98.824C306.001 102.664 304.593 105.448 302.353 107.176C300.113 108.904 296.401 109.768 291.217 109.768C286.033 109.768 282.321 108.904 280.081 107.176C277.841 105.448 276.433 102.696 275.857 98.92C275.281 95.08 274.993 88.808 274.993 80.104V42.952H284.785V84.232C284.785 89.608 284.881 93.352 285.073 95.464C285.329 97.576 285.873 99.016 286.705 99.784C287.601 100.488 289.105 100.84 291.217 100.84C293.393 100.84 294.897 100.488 295.729 99.784C296.625 99.016 297.169 97.576 297.361 95.464C297.617 93.352 297.745 89.608 297.745 84.232V42.952H307.537ZM336.652 109L322.348 67.432H321.964V109H312.652V42.952H322.06L335.788 82.504H336.268V42.952H345.58V109H336.652Z" fill="black"/>
</svg>
