<svg width="349" height="151" viewBox="0 0 349 151" fill="none" xmlns="http://www.w3.org/2000/svg">
<path d="M11.7797 109V51.9761H0.869141V42.9521H32.5386V51.9761H21.6281V109H11.7797Z" fill="#102F10"/>
<path d="M49.3789 109.768C43.9719 109.768 40.0776 108.84 37.6959 106.984C35.3787 105.128 33.8982 102.024 33.2545 97.6721C32.6752 93.3201 32.3855 86.0881 32.3855 75.9761C32.3855 65.8641 32.6752 58.6321 33.2545 54.2801C33.8982 49.9281 35.3787 46.8241 37.6959 44.9681C40.0776 43.1121 43.9719 42.1841 49.3789 42.1841C54.8502 42.1841 58.7446 43.1121 61.0618 44.9681C63.4435 46.8241 64.924 49.9281 65.5033 54.2801C66.147 58.6321 66.4688 65.8641 66.4688 75.9761C66.4688 86.0881 66.147 93.3201 65.5033 97.6721C64.924 102.024 63.4435 105.128 61.0618 106.984C58.7446 108.84 54.8502 109.768 49.3789 109.768ZM49.3789 100.84C51.7605 100.84 53.4019 100.424 54.3031 99.5921C55.2043 98.7601 55.8158 96.7121 56.1376 93.4481C56.4595 90.1841 56.6204 84.3601 56.6204 75.9761C56.6204 67.5921 56.4595 61.7681 56.1376 58.5041C55.8158 55.2401 55.2043 53.1921 54.3031 52.3601C53.4019 51.5281 51.7605 51.1121 49.3789 51.1121C46.9972 51.1121 45.3558 51.5281 44.4547 52.3601C43.6179 53.1921 43.0386 55.2401 42.7167 58.5041C42.3949 61.7681 42.2339 67.5921 42.2339 75.9761C42.2339 84.3601 42.3949 90.1841 42.7167 93.4481C43.0386 96.7121 43.6179 98.7601 44.4547 99.5921C45.3558 100.424 46.9972 100.84 49.3789 100.84Z" fill="#102F10"/>
<path d="M86.2062 109V51.9761H75.2957V42.9521H106.965V51.9761H96.0546V109H86.2062Z" fill="#102F10"/>
<path d="M131.799 109V80.2961H118.668V109H108.819V42.9521H118.668V70.9841H131.799V42.9521H141.647V109H131.799Z" fill="#102F10"/>
<path d="M147.252 109V42.9521H173.418V51.8801H157.197V71.1761H171.39V80.1041H157.197V100.072H173.418V109H147.252Z" fill="#102F10"/>
<path d="M224.39 109V56.6801H223.811L214.735 109H204.693L195.617 56.6801H195.038V109H185.672V42.9521H200.831L209.617 93.8321H210.293L219.08 42.9521H233.949V109H224.39Z" fill="#102F10"/>
<path d="M255.403 109.768C249.996 109.768 246.102 108.84 243.72 106.984C241.403 105.128 239.923 102.024 239.279 97.6721C238.7 93.3201 238.41 86.0881 238.41 75.9761C238.41 65.8641 238.7 58.6321 239.279 54.2801C239.923 49.9281 241.403 46.8241 243.72 44.9681C246.102 43.1121 249.996 42.1841 255.403 42.1841C260.875 42.1841 264.769 43.1121 267.086 44.9681C269.468 46.8241 270.948 49.9281 271.528 54.2801C272.171 58.6321 272.493 65.8641 272.493 75.9761C272.493 86.0881 272.171 93.3201 271.528 97.6721C270.948 102.024 269.468 105.128 267.086 106.984C264.769 108.84 260.875 109.768 255.403 109.768ZM255.403 100.84C257.785 100.84 259.426 100.424 260.328 99.5921C261.229 98.7601 261.84 96.7121 262.162 93.4481C262.484 90.1841 262.645 84.3601 262.645 75.9761C262.645 67.5921 262.484 61.7681 262.162 58.5041C261.84 55.2401 261.229 53.1921 260.328 52.3601C259.426 51.5281 257.785 51.1121 255.403 51.1121C253.022 51.1121 251.38 51.5281 250.479 52.3601C249.642 53.1921 249.063 55.2401 248.741 58.5041C248.419 61.7681 248.258 67.5921 248.258 75.9761C248.258 84.3601 248.419 90.1841 248.741 93.4481C249.063 96.7121 249.642 98.7601 250.479 99.5921C251.38 100.424 253.022 100.84 255.403 100.84Z" fill="#102F10"/>
<path d="M309.309 42.9521V80.1041C309.309 88.7441 308.988 94.9841 308.344 98.8241C307.765 102.664 306.349 105.448 304.096 107.176C301.843 108.904 298.109 109.768 292.895 109.768C287.682 109.768 283.948 108.904 281.695 107.176C279.442 105.448 278.026 102.696 277.447 98.9201C276.868 95.0801 276.578 88.8081 276.578 80.1041V42.9521H286.426V84.2321C286.426 89.6081 286.523 93.3521 286.716 95.4641C286.973 97.5761 287.521 99.0161 288.357 99.7841C289.259 100.488 290.771 100.84 292.895 100.84C295.084 100.84 296.597 100.488 297.433 99.7841C298.335 99.0161 298.882 97.5761 299.075 95.4641C299.332 93.3521 299.461 89.6081 299.461 84.2321V42.9521H309.309Z" fill="#102F10"/>
<path d="M338.592 109L324.206 67.4321H323.82V109H314.454V42.9521H323.916L337.723 82.5041H338.206V42.9521H347.572V109H338.592Z" fill="#102F10"/>
</svg>
